#!OML:ASF H:\ManfredObstacles\Project 1\Capture day 2\Session 1\male.ASF
:FULLY-SPECIFIED
:DEGREES
179
root 2.22377 15.7838 -20.9057 -175.341 -0.55277 180.613
lowerback -3.95703 0.131505 -3.39458
upperback 1.79276 0.360542 -0.336587
thorax 4.05362 0.0854081 1.58244
lowerneck -33.0987 1.4619 2.18787
upperneck 38.7483 -1.84047 1.26638
head 21.252 -0.790853 -0.474262
rclavicle -6.90777e-015 1.66979e-014
rhumerus -39.5808 -31.8535 -68.0354
rradius 19.3331
rwrist 47.6624
rhand -4.25467 -7.99679
rfingers 7.12502
rthumb 21.5094 -36.8225
lclavicle -6.90777e-015 1.66979e-014
lhumerus -29.7922 17.8147 74.8501
lradius 25.8828
lwrist -45.018
lhand -2.70056 8.91469
lfingers 7.12502
lthumb 23.0013 37.5623
rfemur -13.1628 5.01761 26.8366
rtibia 29.7545
rfoot -11.2433 -18.5117
rtoes -11.7427
lfemur -24.1589 -0.557389 -19.6346
ltibia 75.5148
lfoot 9.59405 17.475
ltoes -6.31532
180
root 2.22491 15.7789 -21.0945 -175.303 -0.139966 180.576
lowerback -4.01563 0.353095 -3.25358
upperback 1.75024 0.65327 -0.445577
thorax 4.02956 0.236635 1.41253
lowerneck -33.0448 1.46217 2.19404
upperneck 38.8107 -1.8442 1.2335
head 21.2789 -0.800718 -0.495526
rclavicle 4.17448e-015 -7.55382e-015
rhumerus -37.1504 -28.7594 -71.6126
rradius 20.4751
rwrist 44.8253
rhand -4.32675 -7.91077
rfingers 7.12502
rthumb 21.4402 -36.7444
lclavicle 4.17448e-015 -7.55382e-015
lhumerus -30.774 21.3439 72.4606
lradius 23.5923
lwrist -47.928
lhand -2.30227 9.16209
lfingers 7.12502
lthumb 23.3834 37.7616
rfemur -12.395 5.10582 26.8568
rtibia 29.6994
rfoot -11.6651 -18.4643
rtoes -12.1309
lfemur -25.6752 -0.509763 -19.7495
ltibia 75.2253
lfoot 8.83751 18.7041
ltoes -6.47841
181
root 2.22566 15.7717 -21.284 -175.282 0.293617 180.546
lowerback -4.04267 0.542964 -3.10983
upperback 1.71617 0.944096 -0.54654
thorax 3.99997 0.404918 1.25037
lowerneck -33.0385 1.45848 2.147
upperneck 38.9081 -1.84518 1.23335
head 21.3438 -0.813262 -0.490736
rclavicle 1.16786e-014 -2.34566e-014
rhumerus -35.0542 -25.7467 -74.6816
rradius 21.7232
rwrist 42.2569
rhand -4.36679 -7.83389
rfingers 7.12502
rthumb 21.4017 -36.6719
lclavicle 1.16786e-014 -2.34566e-014
lhumerus -32.0864 25.2949 69.5546
lradius 21.4313
lwrist -51.494
lhand -1.91844 9.4198
lfingers 7.12502
lthumb 23.7516 37.9719
rfemur -11.6146 5.18652 26.8709
rtibia 29.6505
rfoot -12.0839 -18.3741
rtoes -12.5776
lfemur -27.1047 -0.453643 -19.8355
ltibia 74.7265
lfoot 8.20741 19.9743
ltoes -6.60829
182
root 2.22597 15.7636 -21.4742 -175.283 0.736005 180.534
lowerback -4.03145 0.755615 -2.9549
upperback 1.68645 1.22213 -0.636479
thorax 3.95525 0.549592 1.09055
lowerneck -33.0373 1.46691 2.12619
upperneck 38.9903 -1.82204 1.20154
head 21.3992 -0.81655 -0.499883
rclavicle 2.43511e-015 2.38542e-015
rhumerus -33.2409 -22.846 -77.3076
rradius 23.0593
rwrist 39.8943
rhand -4.41249 -7.7648
rfingers 7.12502
rthumb 21.3578 -36.6078
lclavicle 2.43511e-015 2.38542e-015
lhumerus -33.896 29.7236 65.9451
lradius 19.4129
lwrist -55.8774
lhand -1.57372 9.66121
lfingers 7.12502
lthumb 24.0822 38.17
rfemur -10.7926 5.24787 26.8941
rtibia 29.5746
rfoot -12.4694 -18.2537
rtoes -13.1496
lfemur -28.4426 -0.393132 -19.8745
ltibia 74.0119
lfoot 7.64573 21.2506
ltoes -6.61101
183
root 2.22553 15.7555 -21.6653 -175.294 1.18913 180.546
lowerback -3.99882 0.965756 -2.77424
upperback 1.67096 1.49456 -0.7164
thorax 3.91612 0.6917 0.92575
lowerneck -33.0788 1.47889 2.11801
upperneck 39.047 -1.7802 1.15002
head 21.4485 -0.810645 -0.515173
rclavicle -6.90777e-015 -7.55382e-015
rhumerus -31.6107 -20.0677 -79.5777
rradius 24.4585
rwrist 37.6711
rhand -4.48273 -7.72957
rfingers 7.12502
rthumb 21.2903 -36.5802
lclavicle -6.90777e-015 -7.55382e-015
lhumerus -36.4409 34.7078 61.3459
lradius 17.5632
lwrist -61.2684
lhand -1.27241 9.85252
lfingers 7.12502
lthumb 24.3711 38.3228
rfemur -9.92269 5.26071 26.9278
rtibia 29.4341
rfoot -12.7811 -18.0775
rtoes -13.8171
lfemur -29.6856 -0.323249 -19.8581
ltibia 73.0756
lfoot 7.12698 22.4946
ltoes -6.51658
